<svg xmlns="http://www.w3.org/2000/svg" width="110" height="70" viewBox="0 0 110 70">
  <g fill="none" fill-rule="evenodd" transform="translate(2 -22)">
    <text fill="#000" font-family="AwesomeHandmade, Awesome Handmade" font-size="90">
      <tspan x="0" y="79.285">D</tspan>
    </text>
    <path fill="#000" d="M56.6491655,86.5689153 L48.4313921,86.5689153 C47.3767046,86.5689153 48.4313921,86.5689153 46.179946,86.7069661 C36.5312219,89.2591123 31.7068599,90.3112597 31.7068599,89.8634081 C31.7068599,84.7204393 36.6371727,74.5988376 46.4977984,59.4986028 C46.4977984,58.4439153 48.3912759,44.5611802 49.4459634,44.5611802 L56.6491655,57.5869817 C59.6594195,57.5869817 62.1423296,58.5537786 64.1418413,60.509345 C66.0534624,62.3550481 67.1520952,65.1236028 67.1520952,68.0899114 L67.1520952,76.2197942 C67.1520952,79.2080755 66.141353,81.6909856 64.1418413,83.646552 C62.1423296,85.6021184 59.6594195,86.5689153 56.6491655,86.5689153 Z M50.3869585,61.4981145 L50.3869585,82.7017278 L56.6491655,82.7017278 C58.604732,82.7017278 60.2087359,82.1084661 61.417232,80.9219427 C62.6477007,79.6914739 63.2629351,78.1314153 63.2629351,76.2417669 L63.2629351,68.0679387 C63.2629351,66.0903997 62.6477007,64.4863958 61.417232,63.255927 C60.2087359,62.0913762 58.6267046,61.4981145 56.6491655,61.4981145 L50.3869585,61.4981145 Z" transform="rotate(15 49.43 67.262)"/>
    <path stroke="#979797"/>
    <path fill="#000" d="M63.6723633,90.9023438 C63.4160156,90.6582031 63.2817383,90.3530273 63.2817383,89.9868164 C63.2817383,89.6206055 63.4160156,89.3032227 63.6723633,89.046875 C64.1972656,88.5219727 65.0029297,88.5219727 65.527832,89.046875 C66.0283203,89.5839844 66.0283203,90.4018555 65.527832,90.9023438 C65.0029297,91.4272461 64.1972656,91.4272461 63.6723633,90.9023438 Z M68.0668945,85.2504883 C68.0668945,83.565918 68.652832,82.1376953 69.8125,80.9780273 C70.8989258,79.8549805 72.4125977,79.2202148 74.0605469,79.2202148 C75.6230469,79.2202148 77.0878906,79.7939453 78.1132812,80.8193359 C78.3696289,81.1000977 78.5039062,81.4052734 78.5039062,81.7104492 C78.5039062,82.027832 78.3818359,82.2841797 78.1254883,82.4916992 C77.9179688,82.6748047 77.6738281,82.7724609 77.4174805,82.7724609 C77.234375,82.7724609 77.0634766,82.7236328 76.9047852,82.6381836 L76.050293,82.027832 C75.4277344,81.625 74.6953125,81.4174805 73.8652344,81.4174805 C72.8520508,81.4541016 72.0097656,81.8447266 71.3139648,82.5893555 C70.6181641,83.3339844 70.2763672,84.1884766 70.2763672,85.1772461 C70.2763672,86.2026367 70.6303711,87.0693359 71.3261719,87.7895508 C72.0463867,88.5585938 72.925293,88.9492188 73.9628906,88.9492188 C74.7685547,88.9492188 75.4643555,88.7416992 76.050293,88.3388672 L76.9047852,87.7407227 C77.0878906,87.6430664 77.2587891,87.5942383 77.4296875,87.5942383 C77.6860352,87.5942383 77.9179688,87.6918945 78.1254883,87.875 C78.3696289,88.1069336 78.4916992,88.3754883 78.4916992,88.65625 C78.4916992,88.9980469 78.3696289,89.2910156 78.1132812,89.5473633 C77.1000977,90.5605469 75.6230469,91.1342773 74.0605469,91.1342773 C72.4125977,91.1342773 71.0087891,90.5605469 69.824707,89.425293 C68.652832,88.277832 68.0668945,86.8862305 68.0668945,85.2504883 Z M80.1762695,87.484375 C79.2241211,85.2993164 79.7734375,82.6137695 81.4702148,80.9658203 C82.6298828,79.8061523 84.0336914,79.2202148 85.6694336,79.2202148 C87.2807617,79.2202148 88.7822266,79.8549805 89.8930664,80.9658203 C91.0527344,82.1499023 91.6264648,83.5537109 91.6264648,85.1894531 C91.6264648,86.8007812 91.0039062,88.3144531 89.8930664,89.4008789 C88.7822266,90.5117188 87.2807617,91.1464844 85.6694336,91.1464844 C84.0336914,91.1464844 82.6298828,90.5605469 81.4702148,89.4008789 C80.9086914,88.8515625 80.4814453,88.2167969 80.1762695,87.484375 Z M82.9838867,82.5161133 C82.2392578,83.2607422 81.8730469,84.1518555 81.8730469,85.1894531 C81.8730469,86.2270508 82.2392578,87.1181641 82.9838867,87.862793 C83.7041016,88.6074219 84.6074219,88.9858398 85.6694336,88.9858398 C86.7436523,88.9858398 87.6469727,88.6074219 88.3671875,87.862793 C89.0996094,87.1303711 89.4658203,86.2392578 89.4658203,85.1894531 C89.4658203,84.1396484 89.0996094,83.2485352 88.3671875,82.5161133 C87.6225586,81.7714844 86.7314453,81.4052734 85.6694336,81.4052734 C84.6196289,81.4052734 83.7285156,81.7714844 82.9838867,82.5161133 Z M93.3110352,89.9257812 L93.3110352,83.2363281 C93.3110352,82.1254883 93.7016602,81.1855469 94.4951172,80.3920898 C95.2763672,79.6108398 96.2163086,79.2202148 97.3149414,79.2202148 C98.4624023,79.2202148 99.4389648,79.6474609 100.256836,80.5141602 C101.050293,79.6474609 102.026855,79.2202148 103.186523,79.2202148 C104.285156,79.2202148 105.249512,79.6108398 106.067383,80.3920898 C106.873047,81.1977539 107.275879,82.1499023 107.275879,83.2363281 L107.275879,89.9257812 C107.275879,90.5483398 106.799805,91 106.20166,91 C105.603516,91 105.127441,90.5483398 105.127441,89.9257812 L105.127441,83.3583984 C105.127441,82.8334961 104.944336,82.3818359 104.565918,82.003418 C104.1875,81.625 103.73584,81.4418945 103.19873,81.4418945 C102.722656,81.4418945 102.29541,81.612793 101.941406,81.9423828 C101.587402,82.2597656 101.39209,82.6748047 101.355469,83.175293 C101.367676,83.1875 101.367676,83.2363281 101.367676,83.3217773 L101.367676,85.8120117 C101.367676,86.4101562 100.879395,86.8984375 100.293457,86.8984375 C99.6953125,86.8984375 99.2192383,86.4345703 99.2192383,85.8120117 L99.2192383,83.3706055 C99.2192383,82.8457031 99.0361328,82.3818359 98.6821289,82.003418 C98.3037109,81.625 97.8520508,81.4296875 97.3515625,81.4296875 C96.8754883,81.4296875 96.4604492,81.5883789 96.1064453,81.9057617 C95.7524414,82.2109375 95.5327148,82.6015625 95.4716797,83.0654297 C95.4716797,83.175293 95.4960938,83.2607422 95.4960938,83.2729492 L95.4594727,89.9257812 C95.4594727,90.5483398 94.9833984,91 94.3974609,91 C93.7993164,91 93.3110352,90.5483398 93.3110352,89.9257812 Z"/>
  </g>
</svg>
